<svg xmlns="http://www.w3.org/2000/svg" width="60" height="60" viewBox="0 0 60 60">
  <path id="user-circle-solid" d="M30,8A30,30,0,1,0,60,38,29.995,29.995,0,0,0,30,8Zm0,11.613A10.645,10.645,0,1,1,19.355,30.258,10.645,10.645,0,0,1,30,19.613Zm0,41.613a23.181,23.181,0,0,1-17.722-8.25,13.487,13.487,0,0,1,11.915-7.234,2.96,2.96,0,0,1,.859.133A16.016,16.016,0,0,0,30,46.71a15.956,15.956,0,0,0,4.948-.835,2.96,2.96,0,0,1,.859-.133,13.487,13.487,0,0,1,11.915,7.234A23.181,23.181,0,0,1,30,61.226Z" transform="translate(0 -8)" fill="#d5d9e0"/>
</svg>
